{
  "source": "C:\\Users\\Peter\\Desktop\\stuff\\MIUN\\quantitative_research\\video_compression\\videos\\BVI-HD\\BVI-HD_CDVL_videos\\ORIG\\CalmingWater_1920x1080_60fps.mp4",
  "output": "C:\\Users\\Peter\\Desktop\\stuff\\MIUN\\quantitative_research\\video_compression\\compressed_videos\\BVI-HD\\h264\\3\\CalmingWater_1920x1080_60fps_h264.mp4",
  "codec": "h264",
  "ok": "Input #0, mov,mp4,m4a,3gp,3g2,mj2, from 'C:\\Users\\Peter\\Desktop\\stuff\\MIUN\\quantitative_research\\video_compression\\videos\\BVI-HD\\BVI-HD_CDVL_videos\\ORIG\\CalmingWater_1920x1080_60fps.mp4':\n  Metadata:\n    major_brand     : isom\n    minor_version   : 512\n    compatible_brands: isomiso2avc1mp41\n    encoder         : Lavf54.28.101\n  Duration: 00:00:05.00, start: 0.000000, bitrate: 623787 kb/s\n  Stream #0:0[0x1](und): Video: h264 (High 4:4:4 Predictive) (avc1 / 0x31637661), yuv420p(progressive), 1920x1080, 623782 kb/s, 60 fps, 60 tbr, 60 tbn (default)\n    Metadata:\n      handler_name    : VideoHandler\n      vendor_id       : [0][0][0][0]\n[out#0/mp4 @ 0000022575769b40] Codec AVOption b:a (set bitrate (in bits/s)) has not been used for any stream. The most likely reason is either wrong type (e.g. a video option with no video streams) or that it is a private option of some decoder which was not actually used for any stream.\nStream mapping:\n  Stream #0:0 -> #0:0 (h264 (native) -> h264 (libx264))\nPress [q] to stop, [?] for help\n[libx264 @ 0000022576250300] using cpu capabilities: MMX2 SSE2Fast SSSE3 SSE4.2 AVX FMA3 BMI2 AVX2\n[libx264 @ 0000022576250300] profile High, level 5.0, 4:2:0, 8-bit\n[libx264 @ 0000022576250300] 264 - core 165 r3222 b35605a - H.264/MPEG-4 AVC codec - Copyleft 2003-2025 - http://www.videolan.org/x264.html - options: cabac=1 ref=5 deblock=1:0:0 analyse=0x3:0x113 me=hex subme=8 psy=1 psy_rd=1.00:0.00 mixed_ref=1 me_range=16 chroma_me=1 trellis=2 8x8dct=1 cqm=0 deadzone=21,11 fast_pskip=1 chroma_qp_offset=-2 threads=18 lookahead_threads=3 sliced_threads=0 nr=0 decimate=1 interlaced=0 bluray_compat=0 constrained_intra=0 bframes=3 b_pyramid=2 b_adapt=1 b_bias=0 direct=3 weightb=1 open_gop=0 weightp=2 keyint=250 keyint_min=25 scenecut=40 intra_refresh=0 rc_lookahead=50 rc=cbr mbtree=1 bitrate=3000 ratetol=1.0 qcomp=0.60 qpmin=0 qpmax=69 qpstep=4 vbv_maxrate=3000 vbv_bufsize=3000 nal_hrd=none filler=0 ip_ratio=1.40 aq=1:1.00\nOutput #0, mp4, to 'C:\\Users\\Peter\\Desktop\\stuff\\MIUN\\quantitative_research\\video_compression\\compressed_videos\\BVI-HD\\h264\\3\\CalmingWater_1920x1080_60fps_h264.mp4':\n  Metadata:\n    major_brand     : isom\n    minor_version   : 512\n    compatible_brands: isomiso2avc1mp41\n    encoder         : Lavf62.3.100\n  Stream #0:0(und): Video: h264 (avc1 / 0x31637661), yuv420p(tv, progressive), 1920x1080, q=2-31, 3000 kb/s, 60 fps, 15360 tbn (default)\n    Metadata:\n      encoder         : Lavc62.11.100 libx264\n      handler_name    : VideoHandler\n      vendor_id       : [0][0][0][0]\n    Side data:\n      cpb: bitrate max/min/avg: 3000000/0/3000000 buffer size: 3000000 vbv_delay: N/A\nframe=    0 fps=0.0 q=0.0 size=       0KiB time=N/A bitrate=N/A speed=N/A elapsed=0:00:00.51    \nframe=    0 fps=0.0 q=0.0 size=       0KiB time=N/A bitrate=N/A speed=N/A elapsed=0:00:01.14    \nframe=    0 fps=0.0 q=0.0 size=       0KiB time=N/A bitrate=N/A speed=N/A elapsed=0:00:01.68    \nframe=    0 fps=0.0 q=0.0 size=       0KiB time=N/A bitrate=N/A speed=N/A elapsed=0:00:02.24    \nframe=    0 fps=0.0 q=0.0 size=       0KiB time=N/A bitrate=N/A speed=N/A elapsed=0:00:02.83    \nframe=    0 fps=0.0 q=0.0 size=       0KiB time=N/A bitrate=N/A speed=N/A elapsed=0:00:03.38    \nframe=    9 fps=2.3 q=51.0 size=       0KiB time=00:00:00.10 bitrate=   3.8kbits/s speed=0.0256x elapsed=0:00:03.90    \nframe=   19 fps=4.3 q=51.0 size=       0KiB time=00:00:00.28 bitrate=   1.4kbits/s speed=0.0635x elapsed=0:00:04.46    \nframe=   28 fps=5.6 q=50.0 size=       0KiB time=00:00:00.43 bitrate=   0.9kbits/s speed=0.087x elapsed=0:00:04.98    \nframe=   35 fps=6.3 q=50.0 size=       0KiB time=00:00:00.55 bitrate=   0.7kbits/s speed=0.0992x elapsed=0:00:05.54    \nframe=   45 fps=7.4 q=51.0 size=     256KiB time=00:00:00.70 bitrate=2996.5kbits/s speed=0.114x elapsed=0:00:06.11    \nframe=   55 fps=8.2 q=51.0 size=     256KiB time=00:00:00.86 bitrate=2420.2kbits/s speed=0.13x elapsed=0:00:06.69    \nframe=   67 fps=9.2 q=51.0 size=     256KiB time=00:00:01.08 bitrate=1936.2kbits/s speed=0.149x elapsed=0:00:07.26    \nframe=   78 fps= 10 q=51.0 size=     512KiB time=00:00:01.26 bitrate=3311.6kbits/s speed=0.162x elapsed=0:00:07.80    \nframe=   86 fps= 10 q=51.0 size=     512KiB time=00:00:01.38 bitrate=3032.3kbits/s speed=0.164x elapsed=0:00:08.41    \nframe=   96 fps= 11 q=51.0 size=     512KiB time=00:00:01.55 bitrate=2706.3kbits/s speed=0.172x elapsed=0:00:09.00    \nframe=  107 fps= 11 q=51.0 size=     512KiB time=00:00:01.75 bitrate=2397.0kbits/s speed=0.182x elapsed=0:00:09.61    \nframe=  118 fps= 12 q=51.0 size=     512KiB time=00:00:01.93 bitrate=2169.7kbits/s speed=0.191x elapsed=0:00:10.14    \nframe=  129 fps= 12 q=51.0 size=     768KiB time=00:00:02.08 bitrate=3020.1kbits/s speed=0.195x elapsed=0:00:10.70    \nframe=  137 fps= 12 q=51.0 size=     768KiB time=00:00:02.25 bitrate=2796.4kbits/s speed=0.199x elapsed=0:00:11.32    \nframe=  147 fps= 12 q=51.0 size=     768KiB time=00:00:02.41 bitrate=2603.5kbits/s speed=0.204x elapsed=0:00:11.85    \nframe=  159 fps= 13 q=51.0 size=     768KiB time=00:00:02.60 bitrate=2419.9kbits/s speed=0.209x elapsed=0:00:12.41    \nframe=  169 fps= 13 q=51.0 size=    1024KiB time=00:00:02.76 bitrate=3032.2kbits/s speed=0.213x elapsed=0:00:12.98    \nframe=  178 fps= 13 q=51.0 size=    1024KiB time=00:00:02.93 bitrate=2859.9kbits/s speed=0.217x elapsed=0:00:13.52    \nframe=  188 fps= 13 q=51.0 size=    1024KiB time=00:00:03.08 bitrate=2720.8kbits/s speed=0.219x elapsed=0:00:14.04    \nframe=  196 fps= 13 q=51.0 size=    1024KiB time=00:00:03.23 bitrate=2594.5kbits/s speed=0.221x elapsed=0:00:14.64    \nframe=  205 fps= 13 q=50.0 size=    1280KiB time=00:00:03.38 bitrate=3099.4kbits/s speed=0.222x elapsed=0:00:15.21    \nframe=  216 fps= 14 q=50.0 size=    1280KiB time=00:00:03.56 bitrate=2940.0kbits/s speed=0.226x elapsed=0:00:15.75    \nframe=  229 fps= 14 q=50.0 size=    1280KiB time=00:00:03.78 bitrate=2771.7kbits/s speed=0.232x elapsed=0:00:16.28    \nframe=  266 fps= 16 q=48.0 size=    1536KiB time=00:00:04.40 bitrate=2859.8kbits/s speed=0.262x elapsed=0:00:16.80    \nframe=  282 fps= 16 q=47.0 size=    1536KiB time=00:00:04.66 bitrate=2696.4kbits/s speed=0.269x elapsed=0:00:17.33    \n[mp4 @ 00000225757f7ac0] Starting second pass: moving the moov atom to the beginning of the file\n[out#0/mp4 @ 0000022575769b40] video:1803KiB audio:0KiB subtitle:0KiB other streams:0KiB global headers:0KiB muxing overhead: 0.140314%\nframe=  300 fps= 17 q=-1.0 Lsize=    1806KiB time=00:00:04.96 bitrate=2978.5kbits/s speed=0.281x elapsed=0:00:17.67    \n[libx264 @ 0000022576250300] frame I:2     Avg QP:47.55  size: 16038\n[libx264 @ 0000022576250300] frame P:252   Avg QP:50.67  size:  6533\n[libx264 @ 0000022576250300] frame B:46    Avg QP:50.58  size:  3642\n[libx264 @ 0000022576250300] consecutive B-frames: 79.3%  0.7%  0.0% 20.0%\n[libx264 @ 0000022576250300] mb I  I16..4: 71.4% 28.5%  0.1%\n[libx264 @ 0000022576250300] mb P  I16..4: 19.4%  1.7%  0.0%  P16..4: 25.6%  0.6%  0.8%  0.0%  0.0%    skip:51.8%\n[libx264 @ 0000022576250300] mb B  I16..4:  0.5%  0.2%  0.0%  B16..8: 27.7%  0.5%  0.0%  direct: 2.1%  skip:68.9%  L0:48.7% L1:50.4% BI: 1.0%\n[libx264 @ 0000022576250300] 8x8 transform intra:8.8% inter:98.9%\n[libx264 @ 0000022576250300] direct mvs  spatial:87.0% temporal:13.0%\n[libx264 @ 0000022576250300] coded y,uvDC,uvAC intra: 0.6% 36.5% 0.4% inter: 1.0% 14.8% 0.0%\n[libx264 @ 0000022576250300] i16 v,h,dc,p: 37% 36%  7% 21%\n[libx264 @ 0000022576250300] i8 v,h,dc,ddl,ddr,vr,hd,vl,hu:  1%  3% 74%  3%  5%  2%  6%  2%  4%\n[libx264 @ 0000022576250300] i4 v,h,dc,ddl,ddr,vr,hd,vl,hu:  1%  5% 14% 12%  9%  6% 17%  8% 28%\n[libx264 @ 0000022576250300] i8c dc,h,v,p: 83% 14%  3%  1%\n[libx264 @ 0000022576250300] Weighted P-Frames: Y:3.2% UV:0.4%\n[libx264 @ 0000022576250300] ref P L0: 63.6%  0.8% 13.3%  6.5%  7.6%  7.8%  0.3%\n[libx264 @ 0000022576250300] ref B L0: 77.6% 12.4%  7.0%  3.0%\n[libx264 @ 0000022576250300] ref B L1: 93.2%  6.8%\n[libx264 @ 0000022576250300] kb/s:2953.31\n",
  "seconds": 18.105777263641357,
  "probe_out": {}
}